# xmcd CD database file
#
# Track frame offsets:
#	150
#	19497
#	37457
#	58547
#	78647
#	96440
#	115980
#	136090
#	153997
#	175812
#
# Disc length: 2537 seconds
#
# Revision: 2
# Processed by: cddbd v1.5.2PL0 Copyright (c) Steve Scherf et al.
# Submitted via: CDex 2.09
#
DISCID=8909e70a
DTITLE=Geoffrey Williams - The Drop
DYEAR=1997
DGENRE=Soul
TTITLE0=Sex Life
TTITLE1=I Guess I Will Always Love You
TTITLE2=Tell Me Something Good
TTITLE3=Lovers Talk
TTITLE4=Drive
TTITLE5=Blue
TTITLE6=I Think We Should Know By Now
TTITLE7=I Don't Want To Talk About It
TTITLE8=The Drop
TTITLE9=The Lesson
EXTD=Just as good as Maxwell.......Really.Kiss from Paris, France. YEAR: 1997
EXTT0=
EXTT1=
EXTT2=
EXTT3=
EXTT4=
EXTT5=
EXTT6=
EXTT7=
EXTT8=
EXTT9=
PLAYORDER=
